<?xml version="1.0" standalone="no"?>
<!DOCTYPE svg PUBLIC "-//W3C//DTD SVG 20010904//EN"
 "http://www.w3.org/TR/2001/REC-SVG-20010904/DTD/svg10.dtd">
<svg version="1.0" xmlns="http://www.w3.org/2000/svg"
 width="288.000000pt" height="288.000000pt" viewBox="0 0 288.000000 288.000000"
 preserveAspectRatio="xMidYMid meet">
<metadata>
Created by potrace 1.14, written by Peter Selinger 2001-2017
</metadata>
<g transform="translate(0.000000,288.000000) scale(0.100000,-0.100000)"
fill="#000000" stroke="none">
<path d="M731 2306 c-14 -17 -2 -56 18 -57 49 -4 458 -5 469 -1 23 8 33 39 17
55 -19 20 -488 23 -504 3z"/>
<path d="M493 2202 c-38 -6 -42 -66 -5 -74 9 -2 213 -3 453 -3 l437 1 -16 -22
c-16 -21 -18 -21 -516 -20 -530 1 -540 0 -531 -45 3 -12 7 -24 10 -28 4 -3
222 -6 485 -6 263 0 481 -3 484 -6 4 -3 -1 -12 -10 -20 -14 -12 -106 -14 -518
-15 -276 0 -511 -4 -523 -8 -24 -8 -29 -31 -14 -55 8 -12 87 -15 505 -15 273
0 496 -3 496 -6 0 -3 -5 -12 -10 -20 -8 -13 -79 -15 -529 -15 -383 0 -523 -3
-532 -12 -16 -16 -3 -60 18 -64 10 -3 235 -4 501 -3 386 0 482 -2 482 -12 0
-8 -8 -17 -17 -22 -10 -5 -240 -8 -511 -8 -272 1 -497 -1 -502 -4 -4 -3 -10
-15 -14 -27 -15 -47 -4 -48 511 -47 464 1 480 1 476 -17 -3 -11 -8 -20 -12
-20 -3 -1 -224 -2 -491 -3 -267 -1 -491 -5 -497 -9 -22 -14 -15 -55 10 -63 12
-4 106 -7 210 -7 103 0 187 -2 187 -6 -1 -32 -19 -35 -220 -35 -206 -1 -219
-4 -220 -42 0 -31 30 -35 244 -36 198 0 216 -1 232 -19 21 -23 41 -21 -228
-21 -217 0 -236 -4 -224 -51 l6 -27 259 0 c245 0 259 -1 276 -20 22 -24 54
-22 -263 -23 l-244 0 -10 -23 c-8 -17 -8 -27 2 -39 11 -13 54 -15 295 -15 241
0 284 -2 295 -15 7 -9 11 -18 8 -20 -2 -3 -123 -5 -269 -6 -145 -1 -272 -6
-281 -11 -21 -10 -23 -39 -6 -56 9 -9 91 -12 309 -12 253 0 298 -2 309 -15 7
-9 11 -18 8 -20 -2 -3 -127 -6 -278 -7 -247 -3 -274 -5 -284 -20 -8 -13 -8
-23 0 -35 10 -16 38 -18 312 -21 289 -2 302 -3 312 -22 11 -20 7 -20 -249 -20
-223 0 -262 -2 -275 -16 -9 -8 -16 -19 -16 -24 0 -5 7 -16 16 -24 14 -14 87
-16 658 -16 586 0 645 1 657 17 8 9 13 24 11 35 -2 11 2 17 10 16 8 -2 14 8
16 24 3 22 9 28 27 28 14 0 29 9 35 20 15 28 -4 60 -35 60 -18 0 -25 5 -25 20
0 17 7 20 50 20 55 0 54 3 51 -85 -2 -88 1 -92 64 -92 49 1 55 3 56 21 0 12 1
184 2 383 2 273 -1 364 -10 367 -6 3 -23 3 -38 0 -25 -4 -26 -4 -10 20 15 23
15 26 -2 43 -17 17 -40 18 -286 18 -147 0 -267 1 -267 3 0 2 4 11 10 21 8 17
28 18 246 17 242 -1 274 3 274 39 0 35 -33 40 -253 40 -215 0 -216 0 -203 20
13 19 24 20 184 20 172 1 202 7 202 41 0 31 -36 39 -179 38 -77 -1 -141 2
-141 5 0 3 6 13 13 21 9 12 31 16 92 15 93 -2 115 6 115 41 0 31 -10 34 -97
37 -42 1 -77 8 -86 16 -21 16 -22 35 -3 28 8 -3 22 3 31 13 13 15 14 23 5 39
-6 12 -18 21 -28 22 -54 3 -961 3 -979 1z m1291 -568 c3 -7 0 -17 -7 -21 -20
-12 -547 -10 -547 2 0 29 28 32 285 32 211 0 265 -2 269 -13z m-734 -120 c0
-26 -37 -30 -228 -29 -192 1 -211 5 -212 36 0 3 99 6 220 6 174 0 220 -3 220
-13z m730 -8 c0 -21 -2 -21 -302 -19 -167 0 -304 2 -306 2 -1 1 2 9 7 19 9 18
29 19 305 19 293 0 296 -1 296 -21z m-780 -111 c0 -24 -19 -27 -149 -28 -129
-1 -151 3 -151 28 0 12 28 14 150 14 120 0 150 -3 150 -14z m780 -8 c0 -22 -2
-22 -147 -20 -199 3 -269 3 -395 1 -59 -1 -111 1 -114 5 -4 4 -1 13 5 21 10
12 65 14 332 14 l319 0 0 -21z m-827 -117 c-5 -21 -12 -22 -98 -22 -64 0 -63
0 -75 22 -10 19 -8 20 84 20 89 0 94 -1 89 -20z m257 13 c-1 -25 -28 -38 -78
-37 -60 2 -70 7 -52 29 13 16 130 23 130 8z m568 -15 c-2 -18 -9 -22 -33 -21
-61 2 -65 3 -65 23 0 17 7 20 51 20 46 0 50 -2 47 -22z m-331 -15 c3 -8 -18
-9 -82 -3 -14 2 -11 4 10 9 40 9 68 7 72 -6z m-537 -98 c0 -21 -35 -38 -47
-22 -26 32 -24 37 11 37 25 0 36 -5 36 -15z m250 -4 c0 -20 -42 -29 -108 -23
-28 3 -31 6 -22 23 9 15 22 19 70 19 52 0 60 -2 60 -19z m394 3 c4 -9 4 -19 2
-21 -4 -4 -232 -7 -273 -4 -7 1 -13 10 -13 21 0 19 7 20 139 20 120 0 140 -2
145 -16z m224 -6 c-3 -21 -20 -24 -88 -19 -5 1 -10 10 -10 21 0 17 7 20 51 20
46 0 50 -2 47 -22z m-601 -117 c11 -18 8 -20 -50 -23 -34 -1 -81 -2 -105 0
-38 3 -41 5 -32 23 9 16 22 19 93 19 70 0 84 -3 94 -19z m353 -1 c-10 -18 -21
-20 -113 -20 -91 0 -104 2 -115 20 -12 20 -10 20 113 20 123 0 125 0 115 -20z
m-260 -120 l25 -20 -184 0 c-183 0 -184 0 -166 20 16 18 31 20 159 20 125 0
144 -3 166 -20z m290 -10 c0 -5 -8 -10 -17 -10 -15 0 -16 2 -3 10 19 12 20 12
20 0z"/>
<path d="M2642 1646 c-3 -6 -5 -84 -5 -173 l0 -164 -21 19 c-19 18 -44 29 -86
39 -39 10 -119 1 -157 -18 -66 -32 -128 -123 -132 -192 -1 -15 -2 -33 -3 -39
-4 -49 30 -138 69 -183 61 -68 198 -91 282 -47 45 24 55 27 47 13 -10 -16 18
-27 69 -27 l49 1 1 387 0 386 -53 4 c-30 2 -57 -1 -60 -6z m-110 -385 c25 -1
77 -49 92 -85 43 -103 -44 -217 -152 -200 -142 22 -171 206 -43 271 24 12 53
21 65 18 12 -2 29 -4 38 -4z"/>
<path d="M2030 1632 c-45 -37 -15 -112 45 -112 31 0 67 46 59 74 -17 55 -63
71 -104 38z"/>
<path d="M2016 1350 c-2 -3 -3 -111 -3 -241 l0 -236 56 2 c31 1 58 3 61 4 3 0
5 107 5 236 0 129 -2 235 -5 236 -20 4 -112 4 -114 -1z"/>
<path d="M478 759 c-24 -13 -23 -46 1 -59 13 -6 191 -10 510 -10 432 0 491 2
505 16 9 8 16 19 16 24 0 5 -7 16 -16 24 -14 14 -73 16 -507 16 -316 0 -498
-4 -509 -11z"/>
<path d="M732 637 c-14 -17 -9 -47 9 -57 8 -4 119 -7 246 -7 204 0 234 2 248
17 13 14 13 19 -1 38 -15 22 -19 22 -253 22 -182 0 -241 -3 -249 -13z"/>
</g>
</svg>
