<svg xmlns="http://www.w3.org/2000/svg" xmlns:xlink="http://www.w3.org/1999/xlink" width="144" height="148.349" viewBox="0 0 144 148.349">
  <defs>
    <linearGradient id="linear-gradient" x1="0.5" y1="-0.257" x2="0.5" y2="1" gradientUnits="objectBoundingBox">
      <stop offset="0" stop-color="#4d4f53"/>
      <stop offset="1" stop-color="#202229"/>
    </linearGradient>
  </defs>
  <g id="empty-assets" transform="translate(-738 -352.401)">
    <g id="Group_515" data-name="Group 515" transform="translate(-0.935 -56.342)">
      <g id="Group_71" data-name="Group 71" transform="translate(764.771 408.743)">
        <g id="Group_69" data-name="Group 69" transform="translate(0 0)">
          <path id="Path_44" data-name="Path 44" d="M99.829,63.556h62.63a10.828,10.828,0,0,1,10.829,10.829v83.267a10.828,10.828,0,0,1-10.829,10.829H99.829A10.829,10.829,0,0,1,89,157.652V74.385A10.829,10.829,0,0,1,99.829,63.556" transform="translate(-89 -63.556)" fill="url(#linear-gradient)"/>
          <path id="Path_45" data-name="Path 45" d="M101.692,83.556h43.882a1.692,1.692,0,1,1,0,3.384H101.692a1.692,1.692,0,0,1,0-3.384" transform="translate(-88.886 -70.777)" fill="#fff"/>
          <g id="Group_288" data-name="Group 288" transform="translate(4.193)">
            <g id="Group_287" data-name="Group 287" transform="translate(7.548 27.099)">
              <line id="Line_4" data-name="Line 4" x2="62.064" fill="none" stroke="#fff" stroke-linecap="round" stroke-linejoin="round" stroke-width="2"/>
              <line id="Line_6" data-name="Line 6" x2="62.064" transform="translate(0 12)" fill="none" stroke="#fff" stroke-linecap="round" stroke-linejoin="round" stroke-width="2"/>
              <line id="Line_8" data-name="Line 8" x2="17.911" transform="translate(0 25)" fill="none" stroke="#fff" stroke-linecap="round" stroke-linejoin="round" stroke-width="2"/>
              <line id="Line_12" data-name="Line 12" x2="17.911" transform="translate(0 37)" fill="none" stroke="#fff" stroke-linecap="round" stroke-linejoin="round" stroke-width="2"/>
              <line id="Line_16" data-name="Line 16" x2="17.911" transform="translate(0 50)" fill="none" stroke="#fff" stroke-linecap="round" stroke-linejoin="round" stroke-width="2"/>
              <line id="Line_18" data-name="Line 18" x2="17.911" transform="translate(0 62)" fill="none" stroke="#fff" stroke-linecap="round" stroke-linejoin="round" stroke-width="2"/>
              <line id="Line_20" data-name="Line 20" x2="6.635" transform="translate(44.153 25)" fill="none" stroke="#fff" stroke-linecap="round" stroke-linejoin="round" stroke-width="2"/>
              <line id="Line_24" data-name="Line 24" x2="4.822" transform="translate(44.153 37)" fill="none" stroke="#fff" stroke-linecap="round" stroke-linejoin="round" stroke-width="2"/>
              <line id="Line_28" data-name="Line 28" x2="7.534" transform="translate(44.153 50)" fill="none" stroke="#fff" stroke-linecap="round" stroke-linejoin="round" stroke-width="2"/>
              <line id="Line_30" data-name="Line 30" x2="17.911" transform="translate(44.153 62)" fill="none" stroke="#fff" stroke-linecap="round" stroke-linejoin="round" stroke-width="2"/>
              <line id="Line_32" data-name="Line 32" x2="17.911" transform="translate(22.285 25)" fill="none" stroke="#fff" stroke-linecap="round" stroke-linejoin="round" stroke-width="2"/>
              <line id="Line_36" data-name="Line 36" x2="17.911" transform="translate(22.285 37)" fill="none" stroke="#fff" stroke-linecap="round" stroke-linejoin="round" stroke-width="2"/>
              <line id="Line_40" data-name="Line 40" x2="17.911" transform="translate(22.285 50)" fill="none" stroke="#fff" stroke-linecap="round" stroke-linejoin="round" stroke-width="2"/>
              <line id="Line_42" data-name="Line 42" x2="17.911" transform="translate(22.285 62)" fill="none" stroke="#fff" stroke-linecap="round" stroke-linejoin="round" stroke-width="2"/>
            </g>
          </g>
          <g id="Group_73" data-name="Group 73" transform="translate(59.115 37.473)">
            <path id="Path_56" data-name="Path 56" d="M177.031,170.377l4.73-4.712a2.453,2.453,0,0,0-.049-3.434,2.49,2.49,0,0,0-3.455-.049l-4.74,4.712-4.73-4.712a2.49,2.49,0,0,0-3.555-.05,2.454,2.454,0,0,0,.051,3.532l4.738,4.712-4.738,4.712a2.454,2.454,0,0,0-.051,3.532,2.489,2.489,0,0,0,3.555-.05l4.74-4.712,4.74,4.712a2.491,2.491,0,0,0,3.393-.11,2.452,2.452,0,0,0,.1-3.373Z" transform="translate(-147.479 -145.365)" fill="#fff"/>
            <path id="Path_57" data-name="Path 57" d="M185.5,176.516l-.89-.85h0l-10.256-10.389a25.03,25.03,0,1,0-6.485,6.315l10.827,10.935h0l0,0,.89.85a4.247,4.247,0,0,0,6.214-.319,4.8,4.8,0,0,0-.3-6.539m-31.41-4.53a21.2,21.2,0,1,1,21.2-21.2,21.2,21.2,0,0,1-21.2,21.2" transform="translate(-128.891 -125.751)" fill="#43454a"/>
          </g>
        </g>
      </g>
    </g>
    <text id="No_records_found" data-name="No records found" transform="translate(810 495.75)" fill="#dee2ee" font-size="18" font-family="Muli-Regular, Muli"><tspan x="-71.253" y="0">No records found</tspan></text>
  </g>
</svg>
