<svg id="logo" xmlns="http://www.w3.org/2000/svg" xmlns:xlink="http://www.w3.org/1999/xlink" width="64.484" height="45.443" viewBox="0 0 64.484 45.443">
  <defs>
    <clipPath id="clip-path">
      <rect id="Rectangle_19" data-name="Rectangle 19" width="64.484" height="45.443" fill="none"/>
    </clipPath>
  </defs>
  <rect id="Rectangle_1" data-name="Rectangle 1" width="14.54" height="2.181" transform="translate(15.994)" fill="#0d6ff0"/>
  <rect id="Rectangle_2" data-name="Rectangle 2" width="28.383" height="2.016" transform="translate(9.034 3.341)" fill="#0d6ff0"/>
  <rect id="Rectangle_3" data-name="Rectangle 3" width="35.672" height="2.016" transform="translate(5.39 6.681)" fill="#0d6ff0"/>
  <rect id="Rectangle_4" data-name="Rectangle 4" width="39.395" height="2.016" transform="translate(3.528 10.022)" fill="#0d6ff0"/>
  <rect id="Rectangle_5" data-name="Rectangle 5" width="41.799" height="2.016" transform="translate(2.326 13.362)" fill="#0d6ff0"/>
  <rect id="Rectangle_6" data-name="Rectangle 6" width="44.28" height="2.016" transform="translate(1.086 16.703)" fill="#0d6ff0"/>
  <rect id="Rectangle_7" data-name="Rectangle 7" width="45.443" height="2.016" transform="translate(0.504 20.043)" fill="#0d6ff0"/>
  <rect id="Rectangle_8" data-name="Rectangle 8" width="46.452" height="2.016" transform="translate(0 23.384)" fill="#0d6ff0"/>
  <rect id="Rectangle_9" data-name="Rectangle 9" width="45.443" height="2.016" transform="translate(0.504 26.724)" fill="#0d6ff0"/>
  <rect id="Rectangle_10" data-name="Rectangle 10" width="42.497" height="2.016" transform="translate(1.977 30.065)" fill="#0d6ff0"/>
  <rect id="Rectangle_11" data-name="Rectangle 11" width="39.007" height="2.016" transform="translate(3.722 33.405)" fill="#0d6ff0"/>
  <rect id="Rectangle_12" data-name="Rectangle 12" width="34.509" height="2.016" transform="translate(5.971 36.746)" fill="#0d6ff0"/>
  <rect id="Rectangle_13" data-name="Rectangle 13" width="26.522" height="2.016" transform="translate(9.965 40.087)" fill="#0d6ff0"/>
  <rect id="Rectangle_14" data-name="Rectangle 14" width="14.54" height="1.824" transform="translate(15.994 43.619)" fill="#0d6ff0"/>
  <g id="Group_2" data-name="Group 2">
    <g id="Group_1" data-name="Group 1" clip-path="url(#clip-path)">
      <path id="Union_5" data-name="Union 5" d="M9.22,33.5s-2.248-5.183-3.169-6.825A46.279,46.279,0,0,0,0,18.3l2.406-3.18s5.971,6.205,8.3,11.944c0,0,3.723-14.811,13.183-27.065l2.1,3.335a57.69,57.69,0,0,0-6.515,11.089A130.051,130.051,0,0,0,12.485,33.5Zm44.987-.232V31.985a6.262,6.262,0,1,1,0-10.037V13.105h3.181V33.268Zm-6.946-6.3a3.2,3.2,0,1,0,3.205-3.2A3.207,3.207,0,0,0,47.261,26.967Zm-8.64,6.3V20.937H41.8V33.268Zm-5.74,0V13.105h3.18V33.268Zm-6.2,0v-.83a6.146,6.146,0,1,1,0-10.632v-.869h3.18V33.268Zm-6.226-6.146a3.144,3.144,0,0,0,6.226.622V26.5a3.144,3.144,0,0,0-6.226.621ZM37.922,15.044a1.938,1.938,0,1,1,1.938,1.939A1.937,1.937,0,0,1,37.922,15.044Z" transform="translate(7.098 3.335)" fill="#fff" stroke="rgba(0,0,0,0)" stroke-miterlimit="10" stroke-width="1"/>
    </g>
  </g>
</svg>
