<svg id="stats-03" xmlns="http://www.w3.org/2000/svg" xmlns:xlink="http://www.w3.org/1999/xlink" width="64.414" height="64.414" viewBox="0 0 64.414 64.414">
  <defs>
    <clipPath id="clip-path">
      <rect id="Rectangle_129" data-name="Rectangle 129" width="44.522" height="44.522" transform="translate(0 0)" fill="#fff" stroke="#707070" stroke-width="1"/>
    </clipPath>
  </defs>
  <path id="Path_119" data-name="Path 119" d="M32.207,0A32.207,32.207,0,1,1,0,32.207,32.207,32.207,0,0,1,32.207,0Z" transform="translate(0)" fill="#70cc76"/>
  <g id="Mask_Group_18" data-name="Mask Group 18" transform="translate(9.946 15.156)" clip-path="url(#clip-path)">
    <g id="Group_201" data-name="Group 201" transform="translate(4.331 5.165)">
      <rect id="Rectangle_128" data-name="Rectangle 128" width="36.21" height="19.949" rx="1.466" transform="translate(0 0)" fill="#fff"/>
      <path id="Path_115" data-name="Path 115" d="M19,4.92a6.033,6.033,0,0,0-6.033,6.036h0A6.035,6.035,0,1,0,19,4.92Zm12.3,13.8a.515.515,0,0,0,.465-.295h0a5.6,5.6,0,0,1,.512-.873,5.809,5.809,0,0,1,2.349-1.911.514.514,0,0,0,.3-.49V6.763a.515.515,0,0,0-.3-.469,5.818,5.818,0,0,1-.894-.5,5.854,5.854,0,0,1-.792-.643,5.753,5.753,0,0,1-.664-.772h0a5.627,5.627,0,0,1-.513-.871.514.514,0,0,0-.5-.294H6.706a.516.516,0,0,0-.466.295h0a5.643,5.643,0,0,1-.512.872h0a5.84,5.84,0,0,1-.664.774,5.831,5.831,0,0,1-.791.642,5.784,5.784,0,0,1-.894.5.515.515,0,0,0-.3.469h0v8.411a.515.515,0,0,0,.345.486,5.826,5.826,0,0,1,.855.48,5.8,5.8,0,0,1,.791.643,5.753,5.753,0,0,1,.664.772,5.6,5.6,0,0,1,.512.873.515.515,0,0,0,.5.294Z" transform="translate(-0.898 -0.937)" fill="#70cc76"/>
      <path id="Path_116" data-name="Path 116" d="M16.143,27.386,9.894,36.953l5.384-.992,1.513,4.659,5.816-13.233Z" transform="translate(-2.966 -7.438)" fill="#fff"/>
      <path id="Path_117" data-name="Path 117" d="M29.55,27.386,35.8,36.953l-5.384-.992L28.9,40.619,23.085,27.386Z" transform="translate(-6.513 -7.438)" fill="#7de984"/>
      <ellipse id="Ellipse_46" data-name="Ellipse 46" cx="6.631" cy="6.631" rx="6.631" ry="6.631" transform="translate(11.772 3.36)" fill="#fff"/>
      <g id="Group_200" data-name="Group 200" transform="translate(16.678 5.004)">
        <path id="Path_118" data-name="Path 118" d="M25.685,11.525a1.691,1.691,0,0,0,.113-.577,1.654,1.654,0,1,0-1.955,1.611c.077.014.732.08.85.11a1.682,1.682,0,0,1,1.254,1.663,1.654,1.654,0,1,1-3.194-.64" transform="translate(-22.491 -7.395)" fill="none" stroke="#70cc76" stroke-linecap="round" stroke-linejoin="round" stroke-miterlimit="10" stroke-width="1.5"/>
        <line id="Line_47" data-name="Line 47" y1="1.851" transform="translate(1.736)" fill="none" stroke="#70cc76" stroke-linecap="round" stroke-miterlimit="10" stroke-width="1.5"/>
        <line id="Line_48" data-name="Line 48" y1="1.659" transform="translate(1.736 8.576)" fill="none" stroke="#70cc76" stroke-linecap="round" stroke-miterlimit="10" stroke-width="1.5"/>
      </g>
    </g>
  </g>
</svg>
