<svg id="stats-01" xmlns="http://www.w3.org/2000/svg" width="64.414" height="64.414" viewBox="0 0 64.414 64.414">
  <circle id="Ellipse_28" data-name="Ellipse 28" cx="32.207" cy="32.207" r="32.207" transform="translate(0)" fill="#6330b0"/>
  <g id="Capital" transform="translate(15.309 12.309)">
    <path id="Path_1959" data-name="Path 1959" d="M18.787,27.84a6.519,6.519,0,0,1-2.5,0L17.538,29.7Z" transform="translate(-4.129 -7.247)" fill="#fff"/>
    <path id="Path_1960" data-name="Path 1960" d="M21.22,14.465c-1.4,0-2.8.19-3.876-1.292-.226-.365.182-.058-2.453.686A17.323,17.323,0,0,1,11,14.465v2.92a5.11,5.11,0,0,0,5.745,5.11,5.249,5.249,0,0,0,4.475-5.3Z" transform="translate(-2.7 -3.245)" fill="#fff"/>
    <path id="Path_1961" data-name="Path 1961" d="M7.57,30.15l-4.263,2.3A4.38,4.38,0,0,0,1,36.3V42.45h9.49c0-.073-.036.27.73-5.767l-.577-1.737c-3.621,1.548-3.073,1.905-3.073-4.8Z" transform="translate(0 -7.87)" fill="#fff"/>
    <path id="Path_1962" data-name="Path 1962" d="M12,28.788V33.46l3.971-1.7L13.46,28Z" transform="translate(-2.97 -7.29)" fill="#fff"/>
    <path id="Path_1963" data-name="Path 1963" d="M18.4,37.214l.5-1.511-1.438-.613L16.03,35.7l.5,1.511Z" transform="translate(-4.058 -9.204)" fill="#fff"/>
    <path id="Path_1964" data-name="Path 1964" d="M16.645,40l-.635,5.11h2.913L18.28,40Z" transform="translate(-4.053 -10.53)" fill="#fff"/>
    <path id="Path_1965" data-name="Path 1965" d="M22.531,28.788,21.071,28,18.56,31.759l3.971,1.7Z" transform="translate(-4.741 -7.29)" fill="#fff"/>
    <path id="Path_1966" data-name="Path 1966" d="M28.913,32.449l-4.263-2.3v5a.73.73,0,0,1-.73.73c-.2,0-.168,0-2.329-.934L21,36.683l.73,5.679c.036.139-.8.088,9.49.088V36.3a4.38,4.38,0,0,0-2.307-3.854Z" transform="translate(-5.4 -7.87)" fill="#fff"/>
    <path id="Path_1967" data-name="Path 1967" d="M17.76,8.642a1.664,1.664,0,0,0,1.577,2.19h2.8V8.642a1.46,1.46,0,0,0-1.46-1.46c-.8,0-1.416.073-1.891-.65-1.248-1.869-2.3-1.54-5.409-1.54A4.38,4.38,0,0,0,9,9.372v1.46a15.687,15.687,0,0,0,8.76-2.19Z" transform="translate(-2.16 -1.071)" fill="#fff"/>
    <path id="Path_1968" data-name="Path 1968" d="M35.84,17a5.84,5.84,0,1,0,5.84,5.84A5.84,5.84,0,0,0,35.84,17Zm-.365,5.11h.73a1.834,1.834,0,0,1,.365,3.65.73.73,0,1,1-1.46,0h-.73a.73.73,0,0,1,0-1.46H36.2a.365.365,0,0,0,0-.73h-.73a1.825,1.825,0,0,1-.365-3.613.73.73,0,1,1,1.46-.036h.73a.73.73,0,0,1,0,1.46H35.475a.365.365,0,0,0,0,.73Z" transform="translate(-7.83 -4.32)" fill="#fff"/>
    <path id="Path_1969" data-name="Path 1969" d="M29.728,9.922a.978.978,0,0,0,.73-.431v3.351a.73.73,0,0,0,1.46,0c0-3.862-.095-3.438.212-3.132a.733.733,0,1,0,1.037-1.037c-2.263-2.256-1.723-2.19-3.957,0a.73.73,0,0,0,.518,1.248Z" transform="translate(-7.559 -1.621)" fill="#fff"/>
    <path id="Path_1970" data-name="Path 1970" d="M45.167,8.675c-2.241-2.241-1.723-2.19-3.957,0a.733.733,0,0,0,1.037,1.037c.285-.292.212-.891.212,3.132a.73.73,0,1,0,1.46,0c0-3.862-.095-3.438.212-3.132a.733.733,0,1,0,1.037-1.037Z" transform="translate(-10.799 -1.623)" fill="#fff"/>
    <path id="Path_1971" data-name="Path 1971" d="M35.728,3.921a.978.978,0,0,0,.73-.431V9.03a.73.73,0,0,0,1.46,0c0-6.409-.095-5.628.212-5.322a.733.733,0,0,0,1.037-1.037c-2.27-2.263-1.73-2.19-3.957,0a.73.73,0,0,0,.518,1.248Z" transform="translate(-9.179)" fill="#fff"/>
    <path id="Path_1972" data-name="Path 1972" d="M27,15a1.46,1.46,0,1,1,0,2.92Z" transform="translate(-7.02 -3.78)" fill="#fff"/>
    <path id="Path_1973" data-name="Path 1973" d="M8.46,17.92a1.46,1.46,0,1,1,0-2.92Z" transform="translate(-1.62 -3.78)" fill="#fff"/>
  </g>
</svg>
